REM DIRINDEX 1\2\4,1\2\5,1\2\6,1\3\7,1\3\8,1\3\9,1\3\10
REM DIRNAME cjc058,folder01,folder02,folder03,folder04,folder05,folder06,folder07,folder08,folder09
TITLE ""
FILE "a_28.mp3" MP3
  TRACK 01 AUDIO
    TITLE "0:"
    INDEX 01 00:00:00
  TRACK 02 AUDIO
    TITLE "6:cjc058_0431"
    INDEX 01 00:00:09
  TRACK 03 AUDIO
    TITLE "0:"
    INDEX 01 00:04:13
  TRACK 04 AUDIO
    TITLE "4:cjc058_0432"
    INDEX 01 00:04:60
  TRACK 05 AUDIO
    TITLE "0:"
    INDEX 01 00:06:69
  TRACK 06 AUDIO
    TITLE "5:cjc058_0433"
    INDEX 01 00:07:27
  TRACK 07 AUDIO
    TITLE "0:"
    INDEX 01 00:09:22
  TRACK 08 AUDIO
    TITLE "4:cjc058_0434"
    INDEX 01 00:10:29
  TRACK 09 AUDIO
    TITLE "0:"
    INDEX 01 00:12:36
  TRACK 10 AUDIO
    TITLE "5:cjc058_0435"
    INDEX 01 00:12:65
  TRACK 11 AUDIO
    TITLE "0:"
    INDEX 01 00:16:12
  TRACK 12 AUDIO
    TITLE "4:cjc058_0436"
    INDEX 01 00:17:16
  TRACK 13 AUDIO
    TITLE "0:"
    INDEX 01 00:19:26
  TRACK 14 AUDIO
    TITLE "5:cjc058_0437"
    INDEX 01 00:19:56
  TRACK 15 AUDIO
    TITLE "0:"
    INDEX 01 00:22:44
  TRACK 16 AUDIO
    TITLE "4:cjc058_0438"
    INDEX 01 00:23:46
  TRACK 17 AUDIO
    TITLE "0:"
    INDEX 01 00:25:56
  TRACK 18 AUDIO
    TITLE "5:cjc058_0439"
    INDEX 01 00:26:13
  TRACK 19 AUDIO
    TITLE "0:"
    INDEX 01 00:28:17
  TRACK 20 AUDIO
    TITLE "4:cjc058_0440"
    INDEX 01 00:29:25
  TRACK 21 AUDIO
    TITLE "0:"
    INDEX 01 00:31:33
  TRACK 22 AUDIO
    TITLE "5:cjc058_0441"
    INDEX 01 00:31:65
  TRACK 23 AUDIO
    TITLE "0:"
    INDEX 01 00:35:04
  TRACK 24 AUDIO
    TITLE "4:cjc058_0442"
    INDEX 01 00:36:11
  TRACK 25 AUDIO
    TITLE "0:"
    INDEX 01 00:38:28
  TRACK 26 AUDIO
    TITLE "5:cjc058_0443"
    INDEX 01 00:38:59
  TRACK 27 AUDIO
    TITLE "0:"
    INDEX 01 00:42:10
  TRACK 28 AUDIO
    TITLE "4:cjc058_0444"
    INDEX 01 00:43:15
  TRACK 29 AUDIO
    TITLE "0:"
    INDEX 01 00:45:35
  TRACK 30 AUDIO
    TITLE "5:cjc058_0445"
    INDEX 01 00:45:65
  TRACK 31 AUDIO
    TITLE "0:"
    INDEX 01 00:49:23
  TRACK 32 AUDIO
    TITLE "4:cjc058_0446"
    INDEX 01 00:50:31
  TRACK 33 AUDIO
    TITLE "0:"
    INDEX 01 00:52:43
  TRACK 34 AUDIO
    TITLE "5:cjc058_0447"
    INDEX 01 00:53:00
  TRACK 35 AUDIO
    TITLE "0:"
    INDEX 01 00:57:27
  TRACK 36 AUDIO
    TITLE "4:cjc058_0448"
    INDEX 01 00:58:34
  TRACK 37 AUDIO
    TITLE "0:"
    INDEX 01 01:00:49
  TRACK 38 AUDIO
    TITLE "5:cjc058_0449"
    INDEX 01 01:01:07
  TRACK 39 AUDIO
    TITLE "0:"
    INDEX 01 01:04:21
  TRACK 40 AUDIO
    TITLE "4:cjc058_0450"
    INDEX 01 01:05:24
  TRACK 41 AUDIO
    TITLE "0:"
    INDEX 01 01:07:35
  TRACK 42 AUDIO
    TITLE "5:cjc058_0451"
    INDEX 01 01:07:64
  TRACK 43 AUDIO
    TITLE "0:"
    INDEX 01 01:10:63
  TRACK 44 AUDIO
    TITLE "4:cjc058_0452"
    INDEX 01 01:11:70
  TRACK 45 AUDIO
    TITLE "0:"
    INDEX 01 01:14:21
  TRACK 46 AUDIO
    TITLE "5:cjc058_0453"
    INDEX 01 01:14:49
  TRACK 47 AUDIO
    TITLE "0:"
    INDEX 01 01:16:58
  TRACK 48 AUDIO
    TITLE "4:cjc058_0454"
    INDEX 01 01:17:59
  TRACK 49 AUDIO
    TITLE "0:"
    INDEX 01 01:20:08
  TRACK 50 AUDIO
    TITLE "5:cjc058_0455"
    INDEX 01 01:20:40
  TRACK 51 AUDIO
    TITLE "0:"
    INDEX 01 01:23:46
  TRACK 52 AUDIO
    TITLE "4:cjc058_0456"
    INDEX 01 01:24:53
  TRACK 53 AUDIO
    TITLE "0:"
    INDEX 01 01:26:64
  TRACK 54 AUDIO
    TITLE "5:cjc058_0457"
    INDEX 01 01:27:20
  TRACK 55 AUDIO
    TITLE "0:"
    INDEX 01 01:29:11
  TRACK 56 AUDIO
    TITLE "4:cjc058_0458"
    INDEX 01 01:30:17
  TRACK 57 AUDIO
    TITLE "0:"
    INDEX 01 01:32:19
  TRACK 58 AUDIO
    TITLE "5:cjc058_0459"
    INDEX 01 01:32:51
  TRACK 59 AUDIO
    TITLE "0:"
    INDEX 01 01:34:52
  TRACK 60 AUDIO
    TITLE "4:cjc058_0460"
    INDEX 01 01:35:53
  TRACK 61 AUDIO
    TITLE "0:"
    INDEX 01 01:37:58
  TRACK 62 AUDIO
    TITLE "5:cjc058_0461"
    INDEX 01 01:38:12
  TRACK 63 AUDIO
    TITLE "0:"
    INDEX 01 01:41:07
  TRACK 64 AUDIO
    TITLE "4:cjc058_0462"
    INDEX 01 01:42:14
  TRACK 65 AUDIO
    TITLE "0:"
    INDEX 01 01:44:38
  TRACK 66 AUDIO
    TITLE "5:cjc058_0463"
    INDEX 01 01:44:68
  TRACK 67 AUDIO
    TITLE "0:"
    INDEX 01 01:48:01
  TRACK 68 AUDIO
    TITLE "4:cjc058_0464"
    INDEX 01 01:49:06
  TRACK 69 AUDIO
    TITLE "0:"
    INDEX 01 01:51:48
  TRACK 70 AUDIO
    TITLE "5:cjc058_0465"
    INDEX 01 01:52:02
  TRACK 71 AUDIO
    TITLE "0:"
    INDEX 01 01:56:43
  TRACK 72 AUDIO
    TITLE "4:cjc058_0466"
    INDEX 01 01:57:47
  TRACK 73 AUDIO
    TITLE "0:"
    INDEX 01 01:59:69
  TRACK 74 AUDIO
    TITLE "5:cjc058_0467"
    INDEX 01 02:00:22
  TRACK 75 AUDIO
    TITLE "0:"
    INDEX 01 02:02:26
  TRACK 76 AUDIO
    TITLE "4:cjc058_0468"
    INDEX 01 02:03:30
  TRACK 77 AUDIO
    TITLE "0:"
    INDEX 01 02:05:60
  TRACK 78 AUDIO
    TITLE "5:cjc058_0469"
    INDEX 01 02:06:16
  TRACK 79 AUDIO
    TITLE "0:"
    INDEX 01 02:08:43
